<?xml version="1.0" encoding="utf-8"?>
<!-- Generator: Adobe Illustrator 22.0.1, SVG Export Plug-In . SVG Version: 6.00 Build 0)  -->
<svg version="1.1" id="Layer_1" xmlns="http://www.w3.org/2000/svg" xmlns:xlink="http://www.w3.org/1999/xlink" x="0px" y="0px"
	 viewBox="0 0 25.2 25.4" style="enable-background:new 0 0 25.2 25.4;" xml:space="preserve">
<style type="text/css">
	.st0{fill:#FFFFFF;}
	.st1{fill:#2C3883;}
</style>
<title>chevron23</title>
<desc>Created with Sketch.</desc>
<g id="Page-1">
	<g id="Font-Awesome-Icon-Pack" transform="translate(-321.000000, -559.000000)">
		<g>
			<path d="M343.5,579.3L343.5,579.3C343.5,579.3,343.4,579.3,343.5,579.3L343.5,579.3z"/>
			<path class="st0" d="M340.1,567.7c-0.2-0.2-0.5-0.3-0.7-0.3s-0.5,0.1-0.7,0.3l-4.9,4.9l-4.9-4.9c-0.2-0.2-0.5-0.3-0.7-0.3
				c-0.3,0-0.5,0.1-0.7,0.3l-1.7,1.7c-0.2,0.2-0.3,0.5-0.3,0.7s0.1,0.5,0.3,0.7l7.3,7.3c0.2,0.2,0.5,0.3,0.7,0.3
				c0.3,0,0.5-0.1,0.7-0.3l7.3-7.3c0.2-0.2,0.3-0.5,0.3-0.7c0-0.3-0.1-0.5-0.3-0.7L340.1,567.7z"/>
			<path class="st1" d="M344.4,565.5c-1.1-1.9-2.6-3.4-4.5-4.5c-1.9-1.1-4-1.7-6.2-1.7c-2.3,0-4.3,0.6-6.2,1.7
				c-1.9,1.1-3.4,2.6-4.5,4.5c-1.1,1.9-1.7,4-1.7,6.2c0,2.3,0.6,4.3,1.7,6.2s2.6,3.4,4.5,4.5c1.9,1.1,4,1.7,6.2,1.7
				c2.3,0,4.3-0.6,6.2-1.7c1.4-0.8,2.6-1.9,3.6-3.1l0,0c0.3-0.4,0.7-0.9,1-1.4c1.1-1.9,1.7-4,1.7-6.2
				C346.1,569.4,345.5,567.3,344.4,565.5z M341.7,570.8l-7.3,7.3c-0.2,0.2-0.5,0.3-0.7,0.3c-0.3,0-0.5-0.1-0.7-0.3l-7.3-7.3
				c-0.2-0.2-0.3-0.5-0.3-0.7s0.1-0.5,0.3-0.7l1.7-1.7c0.2-0.2,0.5-0.3,0.7-0.3c0.3,0,0.5,0.1,0.7,0.3l4.9,4.9l4.9-4.9
				c0.2-0.2,0.5-0.3,0.7-0.3s0.5,0.1,0.7,0.3l1.7,1.7c0.2,0.2,0.3,0.5,0.3,0.7C342,570.4,341.9,570.6,341.7,570.8z"/>
		</g>
	</g>
</g>
</svg>
