<?xml version="1.0" encoding="utf-8"?>
<!-- Generator: Adobe Illustrator 22.0.1, SVG Export Plug-In . SVG Version: 6.00 Build 0)  -->
<svg version="1.1" id="Lager_1" xmlns="http://www.w3.org/2000/svg" xmlns:xlink="http://www.w3.org/1999/xlink" x="0px" y="0px"
	 viewBox="0 0 219.3 49.1" style="enable-background:new 0 0 219.3 49.1;" xml:space="preserve">
<style type="text/css">
	.st0{fill:#FFFFFF;}
</style>
<g>
	<g>
		<path class="st0" d="M15.2,31c1.7,0.8,3.4,1.4,5,1.4c2,0,3.5-1.2,3.5-2.8c0-4-8.8-3-8.8-9.6c0-3.8,3.1-5.7,6.4-5.7
			c1.9,0,3.6,0.5,5.3,1.3l-1,2.8c-1.4-0.6-2.6-1-4.2-1c-1.9,0-3,1.1-3,2.6c0,3.8,8.8,3.2,8.8,9.6c0,3.6-3,5.9-6.9,5.9
			c-2,0-4-0.5-6.1-1.6L15.2,31z"/>
	</g>
	<g>
		<path class="st0" d="M31.4,17.3h-2.8v-2.5h2.8V9.9l3.4-1v5.9h4.8v2.5h-4.8v11.5c0,2.3,0.9,3.5,3.1,3.5c0.8,0,1.7-0.2,2.5-0.4
			l0.6,3c-1.1,0.3-2.2,0.5-3.4,0.5c-3.7,0-6.3-2.1-6.3-6.4V17.3z"/>
	</g>
	<g>
		<path class="st0" d="M45.6,41.2c1.5,0,2.3-0.9,2.9-2.8l0.9-2.6l-0.3-0.8l-7.1-20.2h3.6l4.2,12.5c0.4,1.2,0.8,2.9,1.3,4.4
			c0.4-1.5,0.8-3.2,1.3-4.4l4-12.5h3.6l-8.4,25.1c-1,3-3.2,4.5-5.7,4.5c-1.4,0-2.8-0.3-4.2-1l1-2.9C43.6,40.9,44.6,41.2,45.6,41.2z"
			/>
	</g>
	<g>
		<path class="st0" d="M62,15.2l2.9-0.4l0.4,3.3c1.3-2.2,3.6-3.8,6.9-3.8v3.1c-4.2,0-6.8,3.7-6.8,8.1v9.4H62V15.2z"/>
	</g>
	<g>
		<path class="st0" d="M74.8,6L78.3,5v18.7l7.4-9h4.1l-6.5,7.7l8.1,12.5h-3.9L81,25.1l-2.7,3.2v6.6h-3.4V6z"/>
	</g>
	<g>
		<path class="st0" d="M108.1,34.1c-2.2,1-4.3,1.3-6.7,1.3c-6.5,0-10.3-4.8-10.3-10.6c0-5.8,3.7-10.7,9.4-10.7
			c6.3,0,9.1,4.9,9.1,10.9h-15c0.1,4,2.5,7.2,6.8,7.2c2.1,0,4-0.5,5.9-1.3L108.1,34.1z M106.2,22.6c-0.6-3.8-2.8-5.2-5.6-5.2
			c-2.6,0-5,1.6-5.7,5.2H106.2z"/>
	</g>
	<g>
		<path class="st0" d="M112.6,6L116,5v12.4c1.5-1.9,3.7-3.2,6.5-3.2c5.6,0,9.5,4.9,9.5,10.6c0,5.7-3.8,10.6-9.5,10.6
			c-3,0-5.3-1.3-6.8-3.5l-0.4,3h-2.8V6z M128.5,24.9c0-4.4-2.7-7.5-6.2-7.5c-3.4,0-6.5,2.8-6.5,7.5c0,4.6,3,7.5,6.5,7.5
			C125.8,32.4,128.5,29.2,128.5,24.9z"/>
	</g>
	<g>
		<path class="st0" d="M136.2,41.2c1.5,0,2.3-0.9,2.9-2.8l0.8-2.6l-0.3-0.9l-7.1-20.2h3.6l4.2,12.5c0.4,1.2,0.8,2.9,1.3,4.4
			c0.4-1.5,0.8-3.2,1.3-4.4l4-12.5h3.6l-8.4,25.1c-1,3-3.2,4.5-5.7,4.5c-1.4,0-2.8-0.3-4.2-1l1-2.9
			C134.2,40.9,135.2,41.2,136.2,41.2z"/>
	</g>
	<g>
		<path class="st0" d="M153.4,15.2l2.9-0.4l0.4,3.3c1.3-2.2,3.6-3.8,6.9-3.8v3.1c-4.2,0-6.8,3.7-6.8,8.1v9.4h-3.4V15.2z"/>
	</g>
	<g>
		<path class="st0" d="M180.7,32c-1.5,2.2-3.8,3.5-6.8,3.5c-5.7,0-9.5-4.9-9.5-10.7c0-5.7,3.9-10.6,9.5-10.6c2.8,0,5,1.3,6.5,3.2
			v-2.7l3.4,0.4v19.8h-2.8L180.7,32z M180.7,24.8c0-4.6-3-7.5-6.5-7.5c-3.5,0-6.2,3-6.2,7.5c0,4.3,2.6,7.5,6.2,7.5
			C177.6,32.4,180.7,29.5,180.7,24.8z M174.7,4.6c2.1,0,3.9,1.7,3.9,3.8c0,2.1-1.7,3.8-3.9,3.8c-2.2,0-3.9-1.7-3.9-3.8
			C170.8,6.3,172.5,4.6,174.7,4.6z M174.7,9.6c0.6,0,1.3-0.5,1.3-1.3c0-0.6-0.5-1.3-1.2-1.3c-0.7,0-1.3,0.5-1.3,1.3
			C173.4,9,173.9,9.6,174.7,9.6z"/>
	</g>
	<g>
		<path class="st0" d="M187.1,15.2l2.9-0.4l0.4,3.1c1.4-2.4,3.7-3.6,6.8-3.6c4,0,6.7,2.9,6.7,7.7v13h-3.4V22.6c0-3.1-1.3-5.2-4-5.2
			c-3.5,0-5.9,2.9-5.9,8.2v9.4h-3.4V15.2z"/>
	</g>
</g>
<g>
	<line class="st0" x1="2.4" y1="1.3" x2="2.4" y2="47.7"/>
	<rect x="0.7" y="1.3" class="st0" width="3.5" height="46.4"/>
</g>
<g>
	<line class="st0" x1="216.9" y1="1.3" x2="216.9" y2="47.7"/>
	<rect x="215.2" y="1.3" class="st0" width="3.5" height="46.4"/>
</g>
</svg>
